name Walk4.mot
datacolumns 19
datarows 10
range 2.00000000 2.00900000
endheader

                time	   L_ground_force_vx	   L_ground_force_vy	   L_ground_force_vz	   L_ground_force_px	   L_ground_force_py	   L_ground_force_pz	   R_ground_force_vx	   R_ground_force_vy	   R_ground_force_vz	   R_ground_force_px	   R_ground_force_py	   R_ground_force_pz	   L_ground_torque_x	   L_ground_torque_y	   L_ground_torque_z	   R_ground_torque_x	   R_ground_torque_y	   R_ground_torque_z	
          2.00000000	        -23.58277607	        529.61268870	         23.67073175	          0.49079705	          0.00000000	          0.23997783	          0.00118984	         -0.00708030	          0.00085909	         -0.00001930	          0.00000000	          0.00012603	          0.00000000	         -1.36207157	          0.00000000	          0.00000000	          0.00014445	          0.00000000	
          2.00100000	        -23.14593936	        528.74232204	         23.77542729	          0.49108952	          0.00000000	          0.23993308	          0.00012437	         -0.00914803	          0.00075306	         -0.00001746	          0.00000000	          0.00011605	          0.00000000	         -1.38225746	          0.00000000	          0.00000000	          0.00013539	          0.00000000	
          2.00200000	        -22.71503782	        527.92819130	         23.89269534	          0.49138309	          0.00000000	          0.23988677	         -0.00085098	         -0.01100538	          0.00065320	         -0.00001570	          0.00000000	          0.00010648	          0.00000000	         -1.40172057	          0.00000000	          0.00000000	          0.00012658	          0.00000000	
          2.00300000	        -22.28979836	        527.17060246	         24.02216442	          0.49167775	          0.00000000	          0.23983896	         -0.00174019	         -0.01266323	          0.00055937	         -0.00001404	          0.00000000	          0.00009731	          0.00000000	         -1.42046222	          0.00000000	          0.00000000	          0.00011804	          0.00000000	
          2.00400000	        -21.86994263	        526.46985449	         24.16342173	          0.49197348	          0.00000000	          0.23978968	         -0.00254722	         -0.01413226	          0.00047139	         -0.00001246	          0.00000000	          0.00008857	          0.00000000	         -1.43848699	          0.00000000	          0.00000000	          0.00010979	          0.00000000	
          2.00500000	        -21.45518849	        525.82623904	         24.31601504	          0.49227024	          0.00000000	          0.23973899	         -0.00327600	         -0.01542299	          0.00038912	         -0.00001098	          0.00000000	          0.00008023	          0.00000000	         -1.45580251	          0.00000000	          0.00000000	          0.00010182	          0.00000000	
          2.00600000	        -21.04525171	        525.24004038	         24.47945442	          0.49256800	          0.00000000	          0.23968693	         -0.00393045	         -0.01654570	          0.00031237	         -0.00000957	          0.00000000	          0.00007229	          0.00000000	         -1.47241927	          0.00000000	          0.00000000	          0.00009414	          0.00000000	
          2.00700000	        -20.63984759	        524.71153539	         24.65321406	          0.49286671	          0.00000000	          0.23963358	         -0.00451439	         -0.01751043	          0.00024097	         -0.00000825	          0.00000000	          0.00006476	          0.00000000	         -1.48835039	          0.00000000	          0.00000000	          0.00008676	          0.00000000	
          2.00800000	        -20.23869227	        524.24099329	         24.83673401	          0.49316632	          0.00000000	          0.23957899	         -0.00503163	         -0.01832696	          0.00017473	         -0.00000701	          0.00000000	          0.00005762	          0.00000000	         -1.50361146	          0.00000000	          0.00000000	          0.00007968	          0.00000000	
          2.00900000	        -19.84150354	        523.82867518	         25.02942197	          0.49346680	          0.00000000	          0.23952322	         -0.00548587	         -0.01900482	          0.00011346	         -0.00000585	          0.00000000	          0.00005087	          0.00000000	         -1.51822052	          0.00000000	          0.00000000	          0.00007290	          0.00000000	
